<svg width="400" height="400" viewBox="0 0 400 400" fill="none" xmlns="http://www.w3.org/2000/svg">
<rect x="2" y="2" width="396" height="396" rx="29" fill="#662D91" stroke="black" stroke-width="4"/>
<g filter="url(#filter0_d_162_197)">
<path d="M314.157 71.4168L139.177 110.059C135.62 110.909 132.427 112.871 130.062 115.66C127.697 118.449 126.283 121.92 126.026 125.568L116.231 265.64C110.712 263.884 105.008 262.777 99.2325 262.34C70.8351 260.355 46.7218 274.101 45.3976 293.037C44.0734 311.973 66.039 328.941 94.4365 330.927C122.834 332.913 146.947 319.167 148.271 300.231L157.027 175.017L297.002 144.421L290.085 243.341C284.567 241.581 278.862 240.472 273.087 240.037C244.689 238.051 220.576 251.797 219.252 270.733C217.928 289.669 239.893 306.637 268.291 308.623C296.688 310.609 320.801 296.868 322.126 277.927L335.315 89.3137C335.501 86.6217 335.05 83.9239 333.999 81.4384C332.949 78.953 331.328 76.7498 329.268 75.0072C327.208 73.2646 324.766 72.0315 322.141 71.4077C319.516 70.784 316.781 70.7871 314.157 71.4168Z" fill="black"/>
<path d="M314.624 73.3612C316.943 72.8048 319.36 72.8022 321.679 73.3533C323.999 73.9045 326.156 74.9939 327.977 76.5337C329.797 78.0735 331.229 80.0209 332.158 82.2172C333.028 84.276 333.432 86.5 333.344 88.7298L333.32 89.1765L320.131 277.787C319.529 286.383 313.74 294.043 304.37 299.385C295.014 304.718 282.29 307.597 268.43 306.628C254.571 305.659 242.371 301.036 233.849 294.452C225.313 287.857 220.646 279.466 221.247 270.873C221.848 262.279 227.637 254.619 237.008 249.277C246.362 243.943 259.084 241.064 272.941 242.031C278.559 242.455 284.109 243.534 289.477 245.246L291.903 246.02L299.184 141.897L296.575 142.468L156.6 173.063L155.137 173.383L146.276 300.091C145.675 308.684 139.886 316.344 130.516 321.687C121.16 327.021 108.436 329.901 94.576 328.932C80.7165 327.963 68.5168 323.34 59.9945 316.755C51.4586 310.161 46.7918 301.77 47.3927 293.176C47.9936 284.583 53.7828 276.923 63.1534 271.581C72.5074 266.247 85.2287 263.368 99.0852 264.335C104.704 264.76 110.255 265.837 115.625 267.546L118.049 268.317L128.021 125.708C128.249 122.485 129.498 119.419 131.588 116.954C133.676 114.492 136.494 112.758 139.634 112.006L314.588 73.3695L314.606 73.3658L314.624 73.3612Z" stroke="white" stroke-width="4"/>
</g>
<defs>
<filter id="filter0_d_162_197" x="45.2408" y="70.9424" width="308.215" height="284.275" filterUnits="userSpaceOnUse" color-interpolation-filters="sRGB">
<feFlood flood-opacity="0" result="BackgroundImageFix"/>
<feColorMatrix in="SourceAlpha" type="matrix" values="0 0 0 0 0 0 0 0 0 0 0 0 0 0 0 0 0 0 127 0" result="hardAlpha"/>
<feOffset dx="9" dy="15"/>
<feGaussianBlur stdDeviation="4.55"/>
<feComposite in2="hardAlpha" operator="out"/>
<feColorMatrix type="matrix" values="0 0 0 0 0 0 0 0 0 0 0 0 0 0 0 0 0 0 0.25 0"/>
<feBlend mode="normal" in2="BackgroundImageFix" result="effect1_dropShadow_162_197"/>
<feBlend mode="normal" in="SourceGraphic" in2="effect1_dropShadow_162_197" result="shape"/>
</filter>
</defs>
</svg>
