<svg width="309" height="286" viewBox="0 0 309 286" fill="none" xmlns="http://www.w3.org/2000/svg">
<g filter="url(#filter0_d_275_28)">
<path d="M269.157 1.41683L94.1765 40.0593C90.62 40.9092 87.4272 42.8713 85.0622 45.6604C82.6972 48.4495 81.2833 51.9202 81.0261 55.568L71.2313 195.64C65.7122 193.884 60.0076 192.777 54.2325 192.34C25.8351 190.355 1.72176 204.101 0.397603 223.037C-0.926552 241.973 21.039 258.941 49.4365 260.927C77.8339 262.913 101.947 249.167 103.271 230.231L112.027 105.017L252.002 74.4214L245.085 173.341C239.567 171.581 233.862 170.472 228.087 170.037C199.689 168.051 175.576 181.797 174.252 200.733C172.928 219.669 194.893 236.637 223.291 238.623C251.688 240.609 275.801 226.868 277.126 207.927L290.315 19.3137C290.501 16.6217 290.05 13.9239 288.999 11.4384C287.949 8.95296 286.328 6.74977 284.268 5.00717C282.208 3.26456 279.766 2.03149 277.141 1.40775C274.516 0.784002 271.781 0.787114 269.157 1.41683Z" fill="black"/>
<path d="M269.624 3.36119C271.943 2.80485 274.36 2.80216 276.679 3.35329C278.999 3.90446 281.156 4.99395 282.977 6.53372C284.797 8.07355 286.229 10.0209 287.158 12.2172C288.028 14.276 288.432 16.5 288.344 18.7298L288.32 19.1765L275.131 207.787C274.529 216.383 268.74 224.043 259.37 229.385C250.014 234.718 237.29 237.597 223.43 236.628C209.571 235.659 197.371 231.036 188.849 224.452C180.313 217.857 175.646 209.466 176.247 200.873C176.848 192.279 182.637 184.619 192.008 179.277C201.362 173.943 214.084 171.064 227.941 172.031C233.559 172.455 239.109 173.534 244.477 175.246L246.903 176.02L254.184 71.8974L251.575 72.4678L111.6 103.063L110.137 103.383L101.276 230.091C100.675 238.684 94.8862 246.344 85.5156 251.687C76.1598 257.021 63.4355 259.901 49.576 258.932C35.7165 257.963 23.5168 253.34 14.9945 246.755C6.45863 240.161 1.79185 231.77 2.39273 223.176C2.99362 214.583 8.78281 206.923 18.1534 201.581C27.5074 196.247 40.2287 193.368 54.0852 194.335C59.7043 194.76 65.2551 195.837 70.6252 197.546L73.0489 198.317L83.0211 55.7083C83.2485 52.4851 84.4981 49.4187 86.5877 46.9543C88.6759 44.4916 91.4944 42.7584 94.6341 42.0064L269.588 3.36945L269.606 3.36581L269.624 3.36119Z" stroke="white" stroke-width="4"/>
</g>
<defs>
<filter id="filter0_d_275_28" x="0.24082" y="0.942383" width="308.215" height="284.275" filterUnits="userSpaceOnUse" color-interpolation-filters="sRGB">
<feFlood flood-opacity="0" result="BackgroundImageFix"/>
<feColorMatrix in="SourceAlpha" type="matrix" values="0 0 0 0 0 0 0 0 0 0 0 0 0 0 0 0 0 0 127 0" result="hardAlpha"/>
<feOffset dx="9" dy="15"/>
<feGaussianBlur stdDeviation="4.55"/>
<feComposite in2="hardAlpha" operator="out"/>
<feColorMatrix type="matrix" values="0 0 0 0 0 0 0 0 0 0 0 0 0 0 0 0 0 0 0.25 0"/>
<feBlend mode="normal" in2="BackgroundImageFix" result="effect1_dropShadow_275_28"/>
<feBlend mode="normal" in="SourceGraphic" in2="effect1_dropShadow_275_28" result="shape"/>
</filter>
</defs>
</svg>
