<svg width="20" height="20" viewBox="0 0 20 20" fill="none" xmlns="http://www.w3.org/2000/svg">
<path d="M20 10C20 15.5228 15.5228 20 10 20C4.47715 20 0 15.5228 0 10C0 4.47715 4.47715 0 10 0C15.5228 0 20 4.47715 20 10ZM9.98047 2.75C9.25263 2.75 8.59062 2.84936 7.99512 3.04785C7.41292 3.24632 6.90976 3.52363 6.48633 3.88086C6.07612 4.23811 5.75187 4.66181 5.51367 5.15137C5.2887 5.62774 5.17676 6.15072 5.17676 6.71973V6.83887C5.17677 7.52692 5.29599 8.10959 5.53418 8.58594C5.77236 9.06206 6.10307 9.45891 6.52637 9.77637C6.96305 10.0939 7.47245 10.3523 8.05469 10.5508C8.63694 10.736 9.27913 10.8877 9.98047 11.0068C10.5096 11.0994 10.946 11.2124 11.29 11.3447C11.6341 11.4771 11.906 11.6288 12.1045 11.8008C12.3028 11.9594 12.4411 12.1449 12.5205 12.3564C12.5999 12.5549 12.6396 12.7672 12.6396 12.9922C12.6396 13.4684 12.4482 13.8787 12.0645 14.2227C11.6807 14.5667 11.0918 14.7383 10.2979 14.7383C9.27888 14.7383 8.52479 14.4935 8.03516 14.0039C7.55875 13.5011 7.32031 12.8327 7.32031 11.999C7.32031 11.7364 7.10739 11.5234 6.84473 11.5234H5.29492C4.96646 11.5234 4.7002 11.7897 4.7002 12.1182C4.7002 12.846 4.81942 13.5216 5.05762 14.1436C5.29582 14.7521 5.64632 15.288 6.10938 15.751C6.5725 16.2008 7.14789 16.5586 7.83594 16.8232C8.53725 17.0746 9.3448 17.2002 10.2578 17.2002C11.0386 17.2002 11.7403 17.1008 12.3623 16.9023C12.9842 16.7039 13.5135 16.4193 13.9502 16.0488C14.3869 15.6783 14.7174 15.2348 14.9424 14.7188C15.1806 14.1894 15.2998 13.6005 15.2998 12.9521V12.7139C15.2998 11.4966 14.9159 10.577 14.1484 9.95508C13.3809 9.3332 12.2691 8.88964 10.8135 8.625C10.2316 8.51921 9.74884 8.40709 9.36523 8.28809C8.99485 8.16904 8.69031 8.03611 8.45215 7.89062C8.22733 7.73194 8.06825 7.56011 7.97559 7.375C7.88296 7.17653 7.83595 6.95789 7.83594 6.71973C7.83594 6.25659 8.02834 5.89258 8.41211 5.62793C8.79587 5.3501 9.31886 5.21094 9.98047 5.21094C10.7609 5.21099 11.3627 5.41624 11.7861 5.82617C12.2228 6.23637 12.4414 6.71964 12.4414 7.27539C12.4414 7.53859 12.6548 7.75195 12.918 7.75195H14.3467C14.7415 7.75195 15.0615 7.43191 15.0615 7.03711C15.0615 6.46816 14.9496 5.92521 14.7246 5.40918C14.5129 4.89328 14.1885 4.43691 13.752 4.04004C13.3286 3.64315 12.7991 3.33236 12.1641 3.10742C11.5289 2.86927 10.8008 2.75003 9.98047 2.75Z" fill="#90CAF9"/>
</svg>
